<?xml version="1.0" encoding="UTF-8" standalone="no"?>
<!DOCTYPE svg PUBLIC "-//W3C//DTD SVG 1.1//EN" "http://www.w3.org/Graphics/SVG/1.1/DTD/svg11.dtd">
<svg width="100%" height="100%" viewBox="0 0 1280 800" version="1.1" xmlns="http://www.w3.org/2000/svg" xmlns:xlink="http://www.w3.org/1999/xlink" xml:space="preserve" xmlns:serif="http://www.serif.com/" style="fill-rule:evenodd;clip-rule:evenodd;stroke-linejoin:round;stroke-miterlimit:2;">
    <g transform="matrix(0.000980196,1.23091,-1.35033,0.00107529,1329.1,-530.293)">
        <path d="M741.257,242.204C744.141,237.626 749.49,234.804 755.281,234.804C761.072,234.804 766.42,237.626 769.305,242.204C822.244,326.221 1009.55,623.485 1061.21,705.475C1063.96,709.829 1063.95,715.186 1061.19,719.532C1058.43,723.878 1053.34,726.554 1047.83,726.554L462.732,726.554C457.223,726.554 452.132,723.878 449.373,719.532C446.613,715.186 446.603,709.829 449.347,705.475C501.009,623.485 688.317,326.221 741.257,242.204Z" style="fill:rgb(75,85,99);"/>
    </g>
    <g id="Layer1" transform="matrix(1,0,0,1,-72.447,0.138429)">
        <g transform="matrix(-0.909045,-0.00149715,0.00142781,-0.866944,1346.05,786.523)">
            <path d="M709.953,375.999C711.022,373.284 709.941,370.163 707.459,368.801C704.978,367.439 701.915,368.286 700.397,370.754C691.074,386.121 684.91,413.53 684.91,444.747C684.91,475.964 691.074,503.373 700.331,518.785C701.872,521.288 704.978,522.146 707.495,520.765C710.012,519.383 711.11,516.217 710.026,513.464C704.786,496.087 701.266,471.504 701.266,444.747C701.266,417.99 704.786,393.408 709.953,375.999Z" style="fill:rgb(243,244,246);"/>
        </g>
        <g transform="matrix(-1.07119,-0.0017642,0.00177247,-1.07621,1500.64,879.773)">
            <path d="M711.803,370.269C712.756,368.173 712.004,365.698 710.043,364.48C708.083,363.261 705.519,363.673 704.044,365.445C692.745,379.199 684.91,409.553 684.91,444.747C684.91,479.942 692.745,510.295 704.013,524.075C705.501,525.861 708.087,526.277 710.064,525.047C712.041,523.818 712.8,521.323 711.84,519.209C705.645,501.728 701.266,474.591 701.266,444.747C701.266,414.904 705.645,387.766 711.803,370.269Z" style="fill:rgb(243,244,246);"/>
        </g>
        <g transform="matrix(-1.14968,-0.00189346,0.00226833,-1.37729,1598.93,1013.76)">
            <path d="M712.875,367.368C713.691,365.708 712.919,363.799 711.064,362.891C709.21,361.982 706.837,362.351 705.499,363.756C693.43,376.61 684.91,408.047 684.91,444.747C684.91,481.448 693.43,512.885 705.479,525.752C706.826,527.164 709.212,527.534 711.077,526.621C712.942,525.707 713.718,523.788 712.899,522.118C706.16,504.818 701.266,476.294 701.266,444.747C701.266,413.2 706.16,384.677 712.875,367.368Z" style="fill:rgb(243,244,246);"/>
        </g>
        <g transform="matrix(1.10286,0,0,1.12754,22.3781,-37.9986)">
            <path d="M531.638,342.674C531.638,340.557 530.778,338.526 529.248,337.029C527.718,335.533 525.642,334.692 523.477,334.692L422.153,334.692C419.988,334.692 417.913,335.533 416.382,337.029C414.852,338.526 413.992,340.557 413.992,342.674L413.992,434.238C413.992,436.355 414.852,438.385 416.382,439.882C417.913,441.379 419.988,442.22 422.153,442.22L523.477,442.22C525.642,442.22 527.718,441.379 529.248,439.882C530.778,438.385 531.638,436.355 531.638,434.238L531.638,342.674Z" style="fill:rgb(243,244,246);"/>
        </g>
        <g transform="matrix(-0.000863115,-2.11333,1.97021,-0.00080466,-284.165,1554.97)">
            <path d="M529.02,401.773C532.866,395.485 539.405,391.697 546.416,391.697C553.427,391.697 559.967,395.485 563.813,401.773C578.697,426.112 599.093,459.464 608.048,474.107C608.946,475.576 609.021,477.454 608.243,479C607.465,480.546 605.959,481.509 604.321,481.509C580.45,481.509 511.548,481.509 488.145,481.509C486.58,481.509 485.141,480.589 484.398,479.112C483.654,477.635 483.726,475.839 484.584,474.436C493.431,459.968 514.023,426.296 529.02,401.773Z" style="fill:rgb(243,244,246);"/>
        </g>
    </g>
</svg>
