<?xml version="1.0" encoding="UTF-8" standalone="no"?>
<!DOCTYPE svg PUBLIC "-//W3C//DTD SVG 1.1//EN" "http://www.w3.org/Graphics/SVG/1.1/DTD/svg11.dtd">
<svg width="100%" height="100%" viewBox="0 0 1280 800" version="1.1" xmlns="http://www.w3.org/2000/svg" xmlns:xlink="http://www.w3.org/1999/xlink" xml:space="preserve" xmlns:serif="http://www.serif.com/" style="fill-rule:evenodd;clip-rule:evenodd;stroke-linejoin:round;stroke-miterlimit:2;">
    <g transform="matrix(0.000980196,1.23091,-1.35033,0.00107529,1288.48,-530.452)">
        <path d="M741.257,242.204C744.141,237.626 749.49,234.804 755.281,234.804C761.072,234.804 766.42,237.626 769.305,242.204C822.244,326.221 1009.55,623.485 1061.21,705.475C1063.96,709.829 1063.95,715.186 1061.19,719.532C1058.43,723.878 1053.34,726.554 1047.83,726.554L462.732,726.554C457.223,726.554 452.132,723.878 449.373,719.532C446.613,715.186 446.603,709.829 449.347,705.475C501.009,623.485 688.317,326.221 741.257,242.204Z" style="fill:rgb(75,85,99);"/>
    </g>
    <g transform="matrix(-0.866944,-0.00142781,0.00142781,-0.866944,1215.56,786.605)">
        <path d="M709.5,377.559C710.554,374.791 709.305,371.678 706.63,370.406C703.955,369.135 700.753,370.131 699.272,372.696C690.58,388.371 684.91,414.807 684.91,444.747C684.91,474.687 690.58,501.124 699.21,516.834C700.711,519.428 703.952,520.435 706.659,519.148C709.366,517.861 710.631,514.712 709.567,511.91C704.582,494.634 701.266,470.715 701.266,444.747C701.266,418.78 704.582,394.86 709.5,377.559Z" style="fill:rgb(243,244,246);"/>
    </g>
    <g transform="matrix(-1.02826,-0.0016935,0.00177247,-1.07621,1371.42,879.859)">
        <path d="M711.563,370.96C712.525,368.815 711.652,366.321 709.532,365.162C707.412,364.002 704.72,364.545 703.271,366.424C692.387,380.604 684.91,410.366 684.91,444.747C684.91,479.129 692.387,508.891 703.238,523.094C704.7,524.986 707.414,525.532 709.551,524.363C711.688,523.194 712.569,520.682 711.601,518.519C705.532,501.019 701.266,474.201 701.266,444.747C701.266,415.294 705.532,388.476 711.563,370.96Z" style="fill:rgb(243,244,246);"/>
    </g>
    <g transform="matrix(-1.14901,-0.00189237,0.00193235,-1.17329,1496.31,923.178)">
        <path d="M712.412,368.587C713.306,366.7 712.662,364.457 710.896,363.302C709.13,362.147 706.767,362.424 705.33,363.956C693.347,376.916 684.91,408.225 684.91,444.747C684.91,481.269 693.347,512.579 705.303,525.563C706.753,527.107 709.135,527.386 710.916,526.222C712.697,525.057 713.346,522.795 712.446,520.892C705.936,503.497 701.266,475.565 701.266,444.747C701.266,413.93 705.936,385.997 712.412,368.587Z" style="fill:rgb(243,244,246);"/>
    </g>
    <g transform="matrix(1.10286,0,0,1.12754,-68.4717,-37.9986)">
        <path d="M531.638,342.674C531.638,340.557 530.778,338.526 529.248,337.029C527.718,335.533 525.642,334.692 523.477,334.692L422.153,334.692C419.988,334.692 417.913,335.533 416.382,337.029C414.852,338.526 413.992,340.557 413.992,342.674L413.992,434.238C413.992,436.355 414.852,438.385 416.382,439.882C417.913,441.379 419.988,442.22 422.153,442.22L523.477,442.22C525.642,442.22 527.718,441.379 529.248,439.882C530.778,438.385 531.638,436.355 531.638,434.238L531.638,342.674Z" style="fill:rgb(243,244,246);"/>
    </g>
    <g transform="matrix(-0.000863115,-2.11333,1.97021,-0.00080466,-375.015,1554.97)">
        <path d="M529.02,401.773C532.866,395.485 539.405,391.697 546.416,391.697C553.427,391.697 559.967,395.485 563.813,401.773C578.697,426.112 599.093,459.464 608.048,474.107C608.946,475.576 609.021,477.454 608.243,479C607.465,480.546 605.959,481.509 604.321,481.509C580.45,481.509 511.548,481.509 488.145,481.509C486.58,481.509 485.141,480.589 484.398,479.112C483.654,477.635 483.726,475.839 484.584,474.436C493.431,459.968 514.023,426.296 529.02,401.773Z" style="fill:rgb(243,244,246);"/>
    </g>
</svg>
